<svg width="85" height="80" fill="none" xmlns="http://www.w3.org/2000/svg"><path d="M73.685 69.221c-4.3-.6-8.5-1.1-12.8-1.7-1.3-.2-1.3-2.3 0-2.1 3.3.4 6.6.9 9.9 1.3-3.9-4.9-9.7-8-15.2-10.8-7-3.6-14.1-7-21.8-9.1-.2-.1-.4-.1-.7-.2.3.5.7 1.1.9 1.7 1.1 2.1 1.6 4.6.6 6.8-1 2.3-3.9 3.3-6.3 3.4-4.9.3-11.3-2.3-13.6-6.8-.9-1.8-1.1-4.2.3-5.8 1.3-1.6 3.4-2.2 5.3-2.4 2.5-.4 5.1-.3 7.7 0-1.1-1.3-2.3-2.5-3.5-3.8-4.4-4.7-8.7-9.4-11.6-15.2-1.4-2.8-2.4-5.9-2.5-9 0-1.9.3-4.5 2.2-5.4 1.2-.6 2.3 1.2 1 1.8-1.1.6-1.2 2.2-1.2 3.4-.1 2 .5 3.9 1.1 5.8 1.4 3.9 3.8 7.4 6.4 10.5 2.5 3 5.3 5.8 7.9 8.7 1.1 1.2 2.2 2.4 3.3 3.7 1.7.4 3.4.8 5 1.3 7.4 2.1 14.3 5.6 21.1 9.1 4.8 2.5 9.6 5.3 13.4 9.1-1.1-2.6-2.1-5.3-3-8-.4-1.3 1.6-1.8 2-.6 1.4 4.3 3.3 8.5 4.9 12.8.4.8-.2 1.6-.8 1.5Zm-54.8-23.3c-2 .6-3.1 1.9-2.6 4 .6 2.6 3.4 4.2 5.6 5.3 2 .9 4.3 1.4 6.5 1.3 2-.1 4.5-1.1 4.7-3.4.2-2.1-1-4.2-2.2-5.9l-.9-1.2c-3.6-.8-7.5-1.1-11.1-.1Z" fill="#15A352"/></svg>