<svg width="17" height="18" viewBox="0 0 17 18" fill="none" xmlns="http://www.w3.org/2000/svg">
<path fill-rule="evenodd" clip-rule="evenodd" d="M7.60938 2.11677C6.87069 2.11677 6.13924 2.26226 5.45678 2.54495C4.77432 2.82763 4.15423 3.24196 3.6319 3.76429C3.10957 4.28662 2.69524 4.90672 2.41255 5.58917C2.12987 6.27163 1.98438 7.00308 1.98438 7.74177C1.98438 8.48046 2.12987 9.21191 2.41255 9.89436C2.69524 10.5768 3.10957 11.1969 3.6319 11.7192C4.15423 12.2416 4.77432 12.6559 5.45678 12.9386C6.13924 13.2213 6.87069 13.3668 7.60938 13.3668C9.10122 13.3668 10.532 12.7741 11.5869 11.7192C12.6417 10.6644 13.2344 9.23361 13.2344 7.74177C13.2344 6.24993 12.6417 4.81919 11.5869 3.76429C10.532 2.7094 9.10122 2.11677 7.60938 2.11677ZM0.734375 7.74177C0.734521 6.63768 1.00058 5.54987 1.51003 4.57035C2.01949 3.59083 2.75736 2.74842 3.66124 2.11437C4.56511 1.48032 5.6084 1.07329 6.70284 0.927706C7.79729 0.782123 8.9107 0.902269 9.94889 1.27798C10.9871 1.6537 11.9195 2.27392 12.6673 3.0862C13.4151 3.89848 13.9563 4.87891 14.2451 5.94457C14.5338 7.01023 14.5617 8.12975 14.3263 9.20845C14.0909 10.2872 13.5992 11.2933 12.8927 12.1418L16.801 16.0501C16.8624 16.1073 16.9117 16.1763 16.9459 16.253C16.98 16.3297 16.9984 16.4124 16.9999 16.4963C17.0013 16.5803 16.9859 16.6636 16.9545 16.7414C16.923 16.8193 16.8763 16.89 16.8169 16.9493C16.7576 17.0086 16.6869 17.0554 16.609 17.0869C16.5312 17.1183 16.4479 17.1337 16.3639 17.1323C16.28 17.1308 16.1973 17.1124 16.1206 17.0783C16.0439 17.0441 15.9749 16.9948 15.9177 16.9334L12.0094 13.0251C11.0054 13.8613 9.78389 14.3942 8.48798 14.5612C7.19206 14.7281 5.87539 14.5224 4.69222 13.9679C3.50904 13.4135 2.50836 12.5334 1.8074 11.4307C1.10644 10.328 0.734231 9.0484 0.734375 7.74177Z" fill="#15A352" fill-opacity="0.5"/>
</svg>
