<svg width="85" height="80" viewBox="0 0 85 80" fill="none" xmlns="http://www.w3.org/2000/svg">
<path d="M73.6853 69.221C69.3853 68.621 65.1853 68.121 60.8853 67.521C59.5853 67.321 59.5853 65.221 60.8853 65.421C64.1853 65.821 67.4853 66.321 70.7853 66.721C66.8853 61.821 61.0853 58.721 55.5853 55.921C48.5853 52.321 41.4853 48.921 33.7853 46.821C33.5853 46.721 33.3853 46.721 33.0853 46.621C33.3853 47.121 33.7853 47.721 33.9853 48.321C35.0853 50.421 35.5853 52.921 34.5853 55.121C33.5853 57.421 30.6853 58.421 28.2853 58.521C23.3853 58.821 16.9853 56.221 14.6853 51.721C13.7853 49.921 13.5853 47.521 14.9853 45.921C16.2853 44.321 18.3853 43.721 20.2853 43.521C22.7853 43.121 25.3853 43.221 27.9853 43.521C26.8853 42.221 25.6853 41.021 24.4853 39.721C20.0853 35.021 15.7853 30.321 12.8853 24.521C11.4853 21.721 10.4853 18.621 10.3853 15.521C10.3853 13.621 10.6853 11.021 12.5853 10.121C13.7853 9.52099 14.8853 11.321 13.5853 11.921C12.4853 12.521 12.3853 14.121 12.3853 15.321C12.2853 17.321 12.8853 19.221 13.4853 21.121C14.8853 25.021 17.2853 28.521 19.8853 31.621C22.3853 34.621 25.1853 37.421 27.7853 40.321C28.8853 41.521 29.9853 42.721 31.0853 44.021C32.7853 44.421 34.4853 44.821 36.0853 45.321C43.4853 47.421 50.3853 50.921 57.1853 54.421C61.9853 56.921 66.7853 59.721 70.5853 63.521C69.4853 60.921 68.4853 58.221 67.5853 55.521C67.1852 54.221 69.1852 53.721 69.5853 54.921C70.9853 59.221 72.8853 63.421 74.4853 67.721C74.8853 68.521 74.2853 69.321 73.6853 69.221ZM18.8853 45.921C16.8853 46.521 15.7853 47.821 16.2853 49.921C16.8853 52.521 19.6853 54.121 21.8853 55.221C23.8853 56.121 26.1853 56.621 28.3853 56.521C30.3853 56.421 32.8853 55.421 33.0853 53.121C33.2853 51.021 32.0853 48.921 30.8853 47.221C30.5853 46.821 30.2853 46.421 29.9853 46.021C26.3853 45.221 22.4853 44.921 18.8853 45.921Z" fill="#15A352"/>
</svg>
